<?xml version="1.0" encoding="utf-8"?>
<!-- Generator: Adobe Illustrator 16.0.0, SVG Export Plug-In . SVG Version: 6.00 Build 0)  -->
<!DOCTYPE svg PUBLIC "-//W3C//DTD SVG 1.1//EN" "http://www.w3.org/Graphics/SVG/1.1/DTD/svg11.dtd">
<svg version="1.1" id="Layer_1" xmlns="http://www.w3.org/2000/svg" xmlns:xlink="http://www.w3.org/1999/xlink" x="0px" y="0px"
	 width="381.575px" height="60px" viewBox="0 0 381.575 60" enable-background="new 0 0 381.575 60" xml:space="preserve">
<g id="g3291">
	<path id="path3293" fill="#4F4F4F" d="M72.411,25.654h19.45v24.291c-5.283,1.811-11.086,2.715-17.415,2.715
		c-6.948,0-12.319-2.016-16.107-6.045c-3.792-4.029-5.688-9.773-5.688-17.231c0-7.277,2.076-12.937,6.228-16.986
		c4.154-4.047,9.968-6.074,17.45-6.074c2.835,0,5.511,0.268,8.029,0.8c2.515,0.535,4.709,1.214,6.581,2.035l-3.852,9.555
		c-3.247-1.601-6.813-2.401-10.697-2.401c-3.556,0-6.304,1.154-8.246,3.468c-1.942,2.31-2.915,5.615-2.915,9.912
		c0,4.213,0.879,7.422,2.636,9.633c1.756,2.209,4.29,3.314,7.6,3.314c1.81,0,3.475-0.174,4.994-0.525v-7.059h-8.046v-9.402H72.411z
		 M135.52,28.551c0,7.525-2.072,13.32-6.211,17.39c-4.143,4.066-9.963,6.104-17.468,6.104H97.26V6.971h15.603
		c7.233,0,12.818,1.85,16.753,5.551C133.552,16.223,135.52,21.565,135.52,28.551z M122.881,28.985c0-4.132-0.817-7.195-2.451-9.185
		c-1.633-1.996-4.113-2.993-7.444-2.993h-3.547v25.25h2.713c3.701,0,6.41-1.074,8.139-3.221
		C122.018,36.689,122.881,33.402,122.881,28.985L122.881,28.985z M157.907,25.654h19.45v24.291
		c-5.282,1.811-11.086,2.715-17.415,2.715c-6.947,0-12.317-2.016-16.106-6.045c-3.792-4.029-5.688-9.773-5.688-17.231
		c0-7.277,2.077-12.937,6.228-16.986c4.154-4.047,9.969-6.074,17.45-6.074c2.837,0,5.512,0.268,8.029,0.8
		c2.516,0.535,4.711,1.214,6.583,2.035l-3.854,9.555c-3.247-1.601-6.812-2.401-10.697-2.401c-3.556,0-6.303,1.154-8.246,3.468
		c-1.941,2.31-2.913,5.615-2.913,9.912c0,4.213,0.88,7.422,2.637,9.633c1.756,2.209,4.288,3.314,7.598,3.314
		c1.811,0,3.475-0.174,4.995-0.525v-7.059h-8.05V25.654z"/>
</g>
<radialGradient id="path3300_1_" cx="-228.0781" cy="170.9014" r="20.1131" gradientTransform="matrix(0.498 0 0 -0.498 130.318 133.9412)" gradientUnits="userSpaceOnUse">
	<stop  offset="0" style="stop-color:#FFD050"/>
	<stop  offset="1" style="stop-color:#F3C235"/>
</radialGradient>
<path id="path3300" fill="url(#path3300_1_)" d="M8.021,60h6.791c1.607,0,3.604-1.128,4.432-2.511l5.72-9.52
	c0.677-1.396,0.653-3.426-0.119-4.713l-3.378-5.592L8.021,60z"/>
<radialGradient id="path3307_1_" cx="-240.1289" cy="181.1152" r="27.6563" gradientTransform="matrix(0.498 0 0 -0.498 130.318 133.9412)" gradientUnits="userSpaceOnUse">
	<stop  offset="0" style="stop-color:#03AA60"/>
	<stop  offset="1" style="stop-color:#0C924B"/>
</radialGradient>
<path id="path3307" fill="url(#path3307_1_)" d="M15.321,32.514L0.219,57.764C-0.364,59.011,0.242,60,1.74,60h6.281l13.446-22.335
	l-6.146-10.173C16.15,28.87,16.15,31.13,15.321,32.514"/>
<radialGradient id="path3314_1_" cx="-230.6787" cy="220.7969" r="40.5378" gradientTransform="matrix(0.498 0 0 -0.498 130.318 133.9412)" gradientUnits="userSpaceOnUse">
	<stop  offset="0" style="stop-color:#5680C1"/>
	<stop  offset="1" style="stop-color:#5580C1"/>
</radialGradient>
<path id="path3314" fill="url(#path3314_1_)" d="M1.74,0C0.127,0-0.513,1.133,0.316,2.511l24.529,40.745
	c0.772,1.288,0.795,3.317,0.119,4.713l5.963-9.925L8.025,0H1.74z"/>
<radialGradient id="path3321_1_" cx="-218.6143" cy="230.7607" r="33.0572" gradientTransform="matrix(0.498 0 0 -0.498 130.318 133.9412)" gradientUnits="userSpaceOnUse">
	<stop  offset="0" style="stop-color:#E14D40"/>
	<stop  offset="1" style="stop-color:#CD3A2D"/>
</radialGradient>
<path id="path3321" fill="url(#path3321_1_)" d="M8.025,0l22.903,38.045l3.321-5.529c0.83-1.386,0.83-3.646,0-5.023L19.245,2.511
	C18.416,1.133,16.42,0,14.813,0H8.025z"/>
<g>
	<path fill="#4F4F4F" d="M217.404,51.208h-23.711V7.821h23.711v2.79H196.72v16.411h19.527v2.79H196.72v18.606h20.684V51.208z"/>
	<path fill="#4F4F4F" d="M233.548,51.208L221.084,18.95h3.027l8.339,21.931c1.108,2.809,1.939,5.262,2.493,7.359h0.178
		c0.811-2.69,1.642-5.164,2.493-7.419l8.339-21.872h3.027l-12.464,32.258H233.548z"/>
	<path fill="#4F4F4F" d="M267.409,51.801c-4.688,0-8.344-1.444-10.966-4.333c-2.622-2.888-3.932-6.934-3.932-12.138
		c0-5.144,1.266-9.264,3.798-12.36s5.945-4.645,10.239-4.645c3.798,0,6.795,1.326,8.991,3.977c2.195,2.651,3.294,6.252,3.294,10.802
		v2.374h-23.236c0.039,4.432,1.073,7.815,3.102,10.149c2.027,2.334,4.93,3.501,8.71,3.501c1.84,0,3.457-0.128,4.852-0.386
		c1.395-0.257,3.16-0.811,5.298-1.662v2.671c-1.821,0.792-3.502,1.331-5.046,1.617C270.97,51.658,269.269,51.801,267.409,51.801z
		 M266.549,20.938c-3.106,0-5.6,1.024-7.479,3.071c-1.879,2.048-2.978,5-3.294,8.858h19.942c0-3.739-0.812-6.662-2.433-8.769
		C271.662,21.992,269.416,20.938,266.549,20.938z"/>
	<path fill="#4F4F4F" d="M310.23,51.208V30.286c0-3.245-0.682-5.604-2.047-7.078s-3.482-2.211-6.351-2.211
		c-3.858,0-6.683,0.975-8.473,2.923c-1.791,1.949-2.686,5.109-2.686,9.481v17.806h-2.938V18.95h2.493l0.563,4.422h0.179
		c2.097-3.363,5.826-5.045,11.188-5.045c7.32,0,10.98,3.927,10.98,11.782v21.1H310.23z"/>
	<path fill="#4F4F4F" d="M332.103,49.19c1.858,0,3.482-0.158,4.866-0.475v2.374c-1.425,0.475-3.066,0.712-4.926,0.712
		c-2.849,0-4.951-0.761-6.306-2.285c-1.355-1.524-2.033-3.917-2.033-7.182V21.502h-4.778v-1.721l4.778-1.335l1.483-7.301h1.514
		v7.805h9.467v2.552h-9.467v20.417c0,2.474,0.436,4.303,1.306,5.49C328.878,48.596,330.243,49.19,332.103,49.19z"/>
	<path fill="#4F4F4F" d="M363.945,42.81c0,2.889-1.099,5.109-3.294,6.662c-2.197,1.553-5.313,2.33-9.349,2.33
		c-4.313,0-7.735-0.663-10.268-1.988v-3.175c3.244,1.623,6.667,2.433,10.268,2.433c3.186,0,5.604-0.529,7.256-1.587
		c1.651-1.058,2.478-2.468,2.478-4.229c0-1.623-0.657-2.987-1.974-4.096c-1.315-1.107-3.477-2.196-6.483-3.264
		c-3.225-1.167-5.49-2.171-6.796-3.012s-2.29-1.791-2.953-2.849c-0.663-1.058-0.994-2.349-0.994-3.873
		c0-2.414,1.014-4.322,3.042-5.728c2.027-1.405,4.861-2.107,8.502-2.107c3.482,0,6.786,0.653,9.912,1.958l-1.098,2.671
		c-3.166-1.306-6.104-1.958-8.814-1.958c-2.631,0-4.718,0.435-6.262,1.306c-1.543,0.871-2.314,2.078-2.314,3.621
		c0,1.682,0.598,3.027,1.795,4.036c1.197,1.009,3.537,2.137,7.02,3.383c2.907,1.049,5.024,1.993,6.35,2.834s2.319,1.795,2.982,2.864
		S363.945,41.365,363.945,42.81z"/>
</g>
</svg>
